{
  "accessors": [
    {
      "bufferView": 2,
      "componentType": 5126,
      "count": 423,
      "max": [
        16.434900283813477,
        16.434900283813477,
        15.018025398254395
      ],
      "min": [
        -16.434904098510742,
        -16.434906005859375,
        -15.587230682373047
      ],
      "type": "VEC3"
    },
    {
      "bufferView": 2,
      "byteOffset": 5076,
      "componentType": 5126,
      "count": 423,
      "max": [
        0.99569660425186157,
        0.99569660425186157,
        1
      ],
      "min": [
        -0.9956965446472168,
        -0.9956965446472168,
        -1
      ],
      "type": "VEC3"
    },
    {
      "bufferView": 3,
      "componentType": 5126,
      "count": 423,
      "max": [
        0.99999731779098511,
        0.99999827146530151,
        0.55182087421417236,
        1
      ],
      "min": [
        -0.9999995231628418,
        -0.99631392955780029,
        -0.51425015926361084,
        1
      ],
      "type": "VEC4"
    },
    {
      "bufferView": 1,
      "componentType": 5126,
      "count": 423,
      "max": [
        0.93731826543807983,
        0.85004132986068726
      ],
      "min": [
        0.048350010067224503,
        0.15808504819869995
      ],
      "type": "VEC2"
    },
    {
      "bufferView": 0,
      "componentType": 5125,
      "count": 2160,
      "max": [
        422
      ],
      "min": [
        0
      ],
      "type": "SCALAR"
    },
    {
      "bufferView": 2,
      "byteOffset": 10152,
      "componentType": 5126,
      "count": 42,
      "max": [
        5.9238219261169434,
        3.7698554992675781,
        10.130407333374023
      ],
      "min": [
        -0.68404746055603027,
        -0.80414599180221558,
        0
      ],
      "type": "VEC3"
    },
    {
      "bufferView": 2,
      "byteOffset": 10656,
      "componentType": 5126,
      "count": 42,
      "max": [
        0.99232357740402222,
        0.9213641881942749,
        0.79140192270278931
      ],
      "min": [
        -0.86747020483016968,
        -0.96538496017456055,
        -1
      ],
      "type": "VEC3"
    },
    {
      "bufferView": 3,
      "byteOffset": 6768,
      "componentType": 5126,
      "count": 42,
      "max": [
        1,
        0.40197551250457764,
        0.49775999784469604,
        1
      ],
      "min": [
        -0.9664807915687561,
        -0.9742196798324585,
        -0.47163832187652588,
        -1
      ],
      "type": "VEC4"
    },
    {
      "bufferView": 1,
      "byteOffset": 3384,
      "componentType": 5126,
      "count": 42,
      "max": [
        0.99614465236663818,
        0.25035527348518372
      ],
      "min": [
        0.82773280143737793,
        0.0092839617282152176
      ],
      "type": "VEC2"
    },
    {
      "bufferView": 0,
      "byteOffset": 8640,
      "componentType": 5125,
      "count": 138,
      "max": [
        41
      ],
      "min": [
        0
      ],
      "type": "SCALAR"
    }
  ],
  "asset": {
    "extras": {
      "author": "Valter Medeiros (https://sketchfab.com/valumlab)",
      "license": "CC-BY-ND-4.0 (http://creativecommons.org/licenses/by-nd/4.0/)",
      "source": "https://sketchfab.com/3d-models/apple-fruit-559ed61dfeb140309ba321001c110bdc",
      "title": "Apple Fruit"
    },
    "generator": "Sketchfab-8.47.0",
    "version": "2.0"
  },
  "bufferViews": [
    {
      "buffer": 0,
      "byteLength": 9192,
      "byteOffset": 0,
      "name": "floatBufferViews",
      "target": 34963
    },
    {
      "buffer": 0,
      "byteLength": 3720,
      "byteOffset": 9192,
      "byteStride": 8,
      "name": "floatBufferViews",
      "target": 34962
    },
    {
      "buffer": 0,
      "byteLength": 11160,
      "byteOffset": 12912,
      "byteStride": 12,
      "name": "floatBufferViews",
      "target": 34962
    },
    {
      "buffer": 0,
      "byteLength": 7440,
      "byteOffset": 24072,
      "byteStride": 16,
      "name": "floatBufferViews",
      "target": 34962
    }
  ],
  "buffers": [
    {
      "byteLength": 31512,
      "uri": "scene.bin"
    }
  ],
  "images": [
    {
      "uri": "textures/Material_25_baseColor.jpeg"
    },
    {
      "uri": "textures/Material_25_normal.png"
    }
  ],
  "materials": [
    {
      "doubleSided": true,
      "emissiveFactor": [
        0,
        0,
        0
      ],
      "name": "Material_25",
      "normalTexture": {
        "index": 1,
        "scale": 1,
        "texCoord": 0
      },
      "pbrMetallicRoughness": {
        "baseColorFactor": [
          1,
          1,
          1,
          1
        ],
        "baseColorTexture": {
          "index": 0,
          "texCoord": 0
        },
        "metallicFactor": 0,
        "roughnessFactor": 0.89297135964975516
      }
    }
  ],
  "meshes": [
    {
      "name": "Apple_Material #25_0",
      "primitives": [
        {
          "attributes": {
            "NORMAL": 1,
            "POSITION": 0,
            "TANGENT": 2,
            "TEXCOORD_0": 3
          },
          "indices": 4,
          "material": 0,
          "mode": 4
        }
      ]
    },
    {
      "name": "AppleTop_Material #25_0",
      "primitives": [
        {
          "attributes": {
            "NORMAL": 6,
            "POSITION": 5,
            "TANGENT": 7,
            "TEXCOORD_0": 8
          },
          "indices": 9,
          "material": 0,
          "mode": 4
        }
      ]
    }
  ],
  "nodes": [
    {
      "children": [
        1
      ],
      "name": "RootNode (gltf orientation matrix)",
      "rotation": [
        -0.70710678118654746,
        -0,
        -0,
        0.70710678118654757
      ]
    },
    {
      "children": [
        2
      ],
      "name": "RootNode (model correction matrix)"
    },
    {
      "children": [
        3
      ],
      "matrix": [
        1,
        0,
        0,
        0,
        0,
        0,
        1,
        0,
        0,
        -1,
        0,
        0,
        0,
        0,
        0,
        1
      ],
      "name": "b52d9a7cfdfc4ae5a9587578b0b745e6.fbx"
    },
    {
      "children": [
        4
      ],
      "name": "RootNode"
    },
    {
      "children": [
        5,
        7
      ],
      "matrix": [
        1,
        0,
        0,
        0,
        0,
        2.2204460492503131e-16,
        -1,
        0,
        0,
        1,
        2.2204460492503131e-16,
        0,
        0,
        0,
        0,
        1
      ],
      "name": "Apple"
    },
    {
      "children": [
        6
      ],
      "matrix": [
        1,
        0,
        -0,
        0,
        0,
        1,
        0,
        0,
        0,
        0,
        1,
        0,
        0,
        0,
        18.260019302368164,
        1
      ],
      "name": ""
    },
    {
      "mesh": 0,
      "name": "Apple_Material #25_0"
    },
    {
      "children": [
        8
      ],
      "matrix": [
        0.58941400051116943,
        0,
        0,
        0,
        0,
        0.58941400051116943,
        0,
        0,
        0,
        0,
        0.58941400051116943,
        0,
        0,
        0,
        29.922327041625977,
        1
      ],
      "name": "AppleTop"
    },
    {
      "mesh": 1,
      "name": "AppleTop_Material #25_0"
    }
  ],
  "samplers": [
    {
      "magFilter": 9729,
      "minFilter": 9987,
      "wrapS": 10497,
      "wrapT": 10497
    }
  ],
  "scene": 0,
  "scenes": [
    {
      "name": "OSG_Scene",
      "nodes": [
        0
      ]
    }
  ],
  "textures": [
    {
      "sampler": 0,
      "source": 0
    },
    {
      "sampler": 0,
      "source": 1
    }
  ]
}

